<svg xmlns="http://www.w3.org/2000/svg" width="600" height="300" viewBox="0 0 600 300"><defs><radialGradient id="bgbot8" cx="0.5" cy="0.42" r="0.9"><stop offset="0.00" stop-color="#ffe1ef"/><stop offset="0.50" stop-color="#f4a9cf"/><stop offset="1.00" stop-color="#d968a3"/></radialGradient><linearGradient id="txbot8" x1="0" y1="0" x2="0" y2="1"><stop offset="0.00" stop-color="#ffffff"/><stop offset="0.33" stop-color="#ffd6e8"/><stop offset="0.67" stop-color="#ff7bb2"/><stop offset="1.00" stop-color="#ffe6f1"/></linearGradient><radialGradient id="cgbot8" cx="0.5" cy="0.5" r="0.5"><stop offset="0" stop-color="#ff8fc4" stop-opacity="0.3"/><stop offset="1" stop-color="#ff8fc4" stop-opacity="0"/></radialGradient><radialGradient id="vgbot8" cx="0.5" cy="0.5" r="0.78"><stop offset="0.5" stop-color="#000" stop-opacity="0"/><stop offset="1" stop-color="#000" stop-opacity="0.12"/></radialGradient><filter id="glowbot8" x="-40%" y="-60%" width="180%" height="220%"><feGaussianBlur stdDeviation="5"/></filter><filter id="blurbot8" x="-30%" y="-30%" width="160%" height="160%"><feGaussianBlur stdDeviation="16"/></filter><filter id="softbot8"><feGaussianBlur stdDeviation="10"/></filter><filter id="dsbot8" x="-20%" y="-20%" width="140%" height="150%"><feDropShadow dx="0" dy="3.6" stdDeviation="3.6" flood-color="#000" flood-opacity="0.32"/></filter></defs><rect width="600" height="300" fill="url(#bgbot8)"/><g filter="url(#blurbot8)"><circle cx="405.7991827838123" cy="213.18200442474335" r="20.661221821326762" fill="#ffffff" opacity="0.1815922601521015"/><circle cx="346.15555638447404" cy="259.5658251782879" r="32.32265882426873" fill="#ff4f9e" opacity="0.14385348349809646"/><circle cx="15.549426432698965" cy="175.33683597575873" r="27.374781594146043" fill="#ff8fc4" opacity="0.05945223554968834"/><circle cx="72.19989197328687" cy="233.4138095146045" r="31.042900933418423" fill="#ffffff" opacity="0.09912143409252167"/><circle cx="274.3924277834594" cy="298.7485232530162" r="23.195447456557304" fill="#ff4f9e" opacity="0.13346032992005347"/><circle cx="565.2323023416102" cy="119.84797620680183" r="31.98642764473334" fill="#ff8fc4" opacity="0.16915520995855332"/><circle cx="140.0151832960546" cy="157.30832449626178" r="26.292801775503904" fill="#ffffff" opacity="0.1084813503921032"/><circle cx="243.08993043377995" cy="104.04803564306349" r="15.915533727500588" fill="#ff4f9e" opacity="0.06458621978759765"/><circle cx="391.08857614919543" cy="126.92776161711663" r="44.0130626601167" fill="#ff8fc4" opacity="0.10505393221974374"/><circle cx="69.39849341288209" cy="34.444430633448064" r="43.73594656819478" fill="#ffffff" opacity="0.09625095039606095"/><circle cx="98.75175124034286" cy="50.18705769907683" r="48.53142771171406" fill="#ff4f9e" opacity="0.20095303878188137"/><circle cx="418.80665766075253" cy="46.74177390988916" r="15.086669920478016" fill="#ff8fc4" opacity="0.061753466725349426"/><circle cx="185.5964901857078" cy="169.73357449751347" r="47.37941777380183" fill="#ffffff" opacity="0.18275246158242225"/><circle cx="229.72041377797723" cy="156.69228562619537" r="27.804827655199915" fill="#ff4f9e" opacity="0.10202791184186935"/></g><ellipse cx="300" cy="150" rx="252" ry="132" fill="url(#cgbot8)"/><rect width="600" height="114" fill="#ffffff" opacity="0.14"/><rect width="600" height="300" fill="url(#vgbot8)"/><rect x="27" y="27" width="546" height="246" rx="9" fill="none" stroke="#ff4f9e" stroke-width="2.4" opacity="0.8"/><rect x="42" y="42" width="516" height="216" rx="6" fill="none" stroke="#ff4f9e" stroke-width="1" opacity="0.32"/><path d="M42 27 C 44.4 39.6, 44.4 39.6, 57 42 C 44.4 44.4, 44.4 44.4, 42 57 C 39.6 44.4, 39.6 44.4, 27 42 C 39.6 39.6, 39.6 39.6, 42 27 Z" fill="#ff4f9e" opacity="0.9"/><path d="M42 243 C 44.4 255.6, 44.4 255.6, 57 258 C 44.4 260.4, 44.4 260.4, 42 273 C 39.6 260.4, 39.6 260.4, 27 258 C 39.6 255.6, 39.6 255.6, 42 243 Z" fill="#ff4f9e" opacity="0.9"/><path d="M558 27 C 560.4 39.6, 560.4 39.6, 573 42 C 560.4 44.4, 560.4 44.4, 558 57 C 555.6 44.4, 555.6 44.4, 543 42 C 555.6 39.6, 555.6 39.6, 558 27 Z" fill="#ff4f9e" opacity="0.9"/><path d="M558 243 C 560.4 255.6, 560.4 255.6, 573 258 C 560.4 260.4, 560.4 260.4, 558 273 C 555.6 260.4, 555.6 260.4, 543 258 C 555.6 255.6, 555.6 255.6, 558 243 Z" fill="#ff4f9e" opacity="0.9"/><text x="300" y="70.5" text-anchor="middle" dominant-baseline="middle" font-family="'Malgun Gothic','Apple SD Gothic Neo','Noto Sans KR',sans-serif" font-weight="700" font-size="30" fill="#ff4f9e" letter-spacing="5.3999999999999995">✦ 명품알바 ✦</text><text x="300" y="156" text-anchor="middle" dominant-baseline="middle" font-family="'Malgun Gothic','Apple SD Gothic Neo','Noto Sans KR',sans-serif" font-weight="900" font-size="94.44444444444444" fill="#ff8fc4" filter="url(#glowbot8)" opacity="0.7" letter-spacing="-1">광고주 모집</text><text x="300" y="156" text-anchor="middle" dominant-baseline="middle" font-family="'Malgun Gothic','Apple SD Gothic Neo','Noto Sans KR',sans-serif" font-weight="900" font-size="94.44444444444444" fill="url(#txbot8)" stroke="#ffffff" stroke-width="1.511111111111111" filter="url(#dsbot8)" letter-spacing="-1">광고주 모집</text><text x="300" y="237" text-anchor="middle" dominant-baseline="middle" font-family="'Malgun Gothic','Apple SD Gothic Neo','Noto Sans KR',sans-serif" font-weight="600" font-size="25.200000000000003" fill="#a03063" opacity="0.92" letter-spacing="0.4">상단 고정 · 프리미엄 · 상단노출</text></svg>