<svg xmlns="http://www.w3.org/2000/svg" width="600" height="300" viewBox="0 0 600 300"><defs><radialGradient id="bgbot24" cx="0.5" cy="0.42" r="0.9"><stop offset="0.00" stop-color="#ffe1ef"/><stop offset="0.50" stop-color="#f4a9cf"/><stop offset="1.00" stop-color="#d968a3"/></radialGradient><linearGradient id="txbot24" x1="0" y1="0" x2="0" y2="1"><stop offset="0.00" stop-color="#ffffff"/><stop offset="0.33" stop-color="#ffd6e8"/><stop offset="0.67" stop-color="#ff7bb2"/><stop offset="1.00" stop-color="#ffe6f1"/></linearGradient><radialGradient id="cgbot24" cx="0.5" cy="0.5" r="0.5"><stop offset="0" stop-color="#ff8fc4" stop-opacity="0.3"/><stop offset="1" stop-color="#ff8fc4" stop-opacity="0"/></radialGradient><radialGradient id="vgbot24" cx="0.5" cy="0.5" r="0.78"><stop offset="0.5" stop-color="#000" stop-opacity="0"/><stop offset="1" stop-color="#000" stop-opacity="0.12"/></radialGradient><filter id="glowbot24" x="-40%" y="-60%" width="180%" height="220%"><feGaussianBlur stdDeviation="5"/></filter><filter id="blurbot24" x="-30%" y="-30%" width="160%" height="160%"><feGaussianBlur stdDeviation="16"/></filter><filter id="softbot24"><feGaussianBlur stdDeviation="10"/></filter><filter id="dsbot24" x="-20%" y="-20%" width="140%" height="150%"><feDropShadow dx="0" dy="3.6" stdDeviation="3.6" flood-color="#000" flood-opacity="0.32"/></filter></defs><rect width="600" height="300" fill="url(#bgbot24)"/><g filter="url(#blurbot24)"><circle cx="374.984376411885" cy="5.393888312391937" r="15.205445331055671" fill="#ffffff" opacity="0.1741405738890171"/><circle cx="273.9217565394938" cy="76.72234231140465" r="32.87550390744582" fill="#ff4f9e" opacity="0.17141668409109118"/><circle cx="330.05730053409934" cy="284.90615270566195" r="14.859059758950025" fill="#ff8fc4" opacity="0.09514815136790275"/><circle cx="203.47473146393895" cy="159.51539834495634" r="15.022628522012383" fill="#ffffff" opacity="0.07093361616134644"/><circle cx="589.2362575046718" cy="111.58187377732247" r="32.4984042388387" fill="#ff4f9e" opacity="0.20427711442112922"/><circle cx="291.979739908129" cy="259.1056810459122" r="28.600152912084013" fill="#ff8fc4" opacity="0.13243378072977066"/><circle cx="20.633048471063375" cy="183.3235402358696" r="9.909027934540063" fill="#ffffff" opacity="0.14953680142760278"/><circle cx="50.12060450389981" cy="70.42631877120584" r="34.49805739382282" fill="#ff4f9e" opacity="0.17750561773777007"/><circle cx="46.93711129948497" cy="168.4132794616744" r="9.764053252059966" fill="#ff8fc4" opacity="0.09523537889122963"/><circle cx="505.4634721018374" cy="63.77054729964584" r="35.83569240057841" fill="#ffffff" opacity="0.17856764525175095"/><circle cx="591.8998955748975" cy="257.661295006983" r="36.02651958959177" fill="#ff4f9e" opacity="0.12354234144091607"/><circle cx="542.6911887712777" cy="196.3151473319158" r="49.301622232887894" fill="#ff8fc4" opacity="0.1254309594631195"/><circle cx="114.31923760101199" cy="185.30430409591645" r="41.22672708751634" fill="#ffffff" opacity="0.1660510118305683"/><circle cx="331.33767480030656" cy="292.3938819905743" r="33.36846880847588" fill="#ff4f9e" opacity="0.10186173468828202"/></g><ellipse cx="300" cy="150" rx="252" ry="132" fill="url(#cgbot24)"/><rect width="600" height="114" fill="#ffffff" opacity="0.14"/><rect width="600" height="300" fill="url(#vgbot24)"/><rect x="27" y="27" width="546" height="246" rx="9" fill="none" stroke="#ff4f9e" stroke-width="2.4" opacity="0.8"/><rect x="42" y="42" width="516" height="216" rx="6" fill="none" stroke="#ff4f9e" stroke-width="1" opacity="0.32"/><path d="M42 27 C 44.4 39.6, 44.4 39.6, 57 42 C 44.4 44.4, 44.4 44.4, 42 57 C 39.6 44.4, 39.6 44.4, 27 42 C 39.6 39.6, 39.6 39.6, 42 27 Z" fill="#ff4f9e" opacity="0.9"/><path d="M42 243 C 44.4 255.6, 44.4 255.6, 57 258 C 44.4 260.4, 44.4 260.4, 42 273 C 39.6 260.4, 39.6 260.4, 27 258 C 39.6 255.6, 39.6 255.6, 42 243 Z" fill="#ff4f9e" opacity="0.9"/><path d="M558 27 C 560.4 39.6, 560.4 39.6, 573 42 C 560.4 44.4, 560.4 44.4, 558 57 C 555.6 44.4, 555.6 44.4, 543 42 C 555.6 39.6, 555.6 39.6, 558 27 Z" fill="#ff4f9e" opacity="0.9"/><path d="M558 243 C 560.4 255.6, 560.4 255.6, 573 258 C 560.4 260.4, 560.4 260.4, 558 273 C 555.6 260.4, 555.6 260.4, 543 258 C 555.6 255.6, 555.6 255.6, 558 243 Z" fill="#ff4f9e" opacity="0.9"/><text x="300" y="70.5" text-anchor="middle" dominant-baseline="middle" font-family="'Malgun Gothic','Apple SD Gothic Neo','Noto Sans KR',sans-serif" font-weight="700" font-size="30" fill="#ff4f9e" letter-spacing="5.3999999999999995">✦ 명품알바 ✦</text><text x="300" y="156" text-anchor="middle" dominant-baseline="middle" font-family="'Malgun Gothic','Apple SD Gothic Neo','Noto Sans KR',sans-serif" font-weight="900" font-size="94.44444444444444" fill="#ff8fc4" filter="url(#glowbot24)" opacity="0.7" letter-spacing="-1">광고주 모집</text><text x="300" y="156" text-anchor="middle" dominant-baseline="middle" font-family="'Malgun Gothic','Apple SD Gothic Neo','Noto Sans KR',sans-serif" font-weight="900" font-size="94.44444444444444" fill="url(#txbot24)" stroke="#ffffff" stroke-width="1.511111111111111" filter="url(#dsbot24)" letter-spacing="-1">광고주 모집</text><text x="300" y="237" text-anchor="middle" dominant-baseline="middle" font-family="'Malgun Gothic','Apple SD Gothic Neo','Noto Sans KR',sans-serif" font-weight="600" font-size="25.200000000000003" fill="#a03063" opacity="0.92" letter-spacing="0.4">빠른 노출 · 최고 대우 · 입점환영</text></svg>