<svg xmlns="http://www.w3.org/2000/svg" width="600" height="300" viewBox="0 0 600 300"><defs><radialGradient id="bgbot58" cx="0.5" cy="0.42" r="0.9"><stop offset="0.00" stop-color="#2a1466"/><stop offset="0.50" stop-color="#150a3a"/><stop offset="1.00" stop-color="#0a0522"/></radialGradient><linearGradient id="txbot58" x1="0" y1="0" x2="0" y2="1"><stop offset="0.00" stop-color="#ff6ee6"/><stop offset="0.33" stop-color="#ff8fea"/><stop offset="0.67" stop-color="#7fe6ff"/><stop offset="1.00" stop-color="#c7a0ff"/></linearGradient><radialGradient id="cgbot58" cx="0.5" cy="0.5" r="0.5"><stop offset="0" stop-color="#ff5ce0" stop-opacity="0.5"/><stop offset="1" stop-color="#ff5ce0" stop-opacity="0"/></radialGradient><radialGradient id="vgbot58" cx="0.5" cy="0.5" r="0.78"><stop offset="0.5" stop-color="#000" stop-opacity="0"/><stop offset="1" stop-color="#000" stop-opacity="0.45"/></radialGradient><filter id="glowbot58" x="-40%" y="-60%" width="180%" height="220%"><feGaussianBlur stdDeviation="9"/></filter><filter id="blurbot58" x="-30%" y="-30%" width="160%" height="160%"><feGaussianBlur stdDeviation="16"/></filter><filter id="softbot58"><feGaussianBlur stdDeviation="10"/></filter><filter id="dsbot58" x="-20%" y="-20%" width="140%" height="150%"><feDropShadow dx="0" dy="3.6" stdDeviation="3.6" flood-color="#000" flood-opacity="0.6"/></filter></defs><rect width="600" height="300" fill="url(#bgbot58)"/><g filter="url(#blurbot58)"><circle cx="234.5029128715396" cy="51.344141573645175" r="15.111920289229602" fill="#ff5ce0" opacity="0.19830574057996275"/><circle cx="495.4249318689108" cy="63.17994121927768" r="34.050299709197134" fill="#ff5ce0" opacity="0.18998848535120488"/><circle cx="98.38653299957514" cy="292.7409507567063" r="45.763150859158486" fill="#ffffff" opacity="0.05100197248160839"/><circle cx="332.43376538157463" cy="227.48127460945398" r="9.729549647774547" fill="#ff5ce0" opacity="0.07103450305759906"/><circle cx="283.27939566224813" cy="88.85274364147335" r="12.017187401186675" fill="#ff5ce0" opacity="0.09476278148591519"/><circle cx="386.3180447369814" cy="292.52830382902175" r="9.904319105204195" fill="#ffffff" opacity="0.07440074361860752"/><circle cx="516.946011967957" cy="51.105873682536185" r="9.593508522491902" fill="#ff5ce0" opacity="0.19677963487803934"/><circle cx="240.0607869029045" cy="261.48017041850835" r="10.73592018475756" fill="#ff5ce0" opacity="0.07745933838188648"/><circle cx="590.6152484938502" cy="294.07000488135964" r="28.984908259939402" fill="#ffffff" opacity="0.07437095306813718"/><circle cx="307.1015518158674" cy="276.0885452153161" r="13.297652294393629" fill="#ff5ce0" opacity="0.1334906218200922"/><circle cx="589.8397022858262" cy="136.04404928628355" r="38.20358983008191" fill="#ff5ce0" opacity="0.09904460959136487"/><circle cx="205.94581738114357" cy="251.6585658537224" r="12.758395896758884" fill="#ffffff" opacity="0.1807456315308809"/><circle cx="112.85507585853338" cy="218.39210449252278" r="45.40225937915966" fill="#ff5ce0" opacity="0.1505604311078787"/><circle cx="322.2743544727564" cy="130.75977426487952" r="39.44120625918731" fill="#ff5ce0" opacity="0.20150860823690891"/></g><g filter="url(#softbot58)"><path d="M300 -40 L-62.00000000000006 280 L-10.000000000000057 280 Z" fill="#ff5ce0" opacity="0.07"/><path d="M300 -40 L21.99999999999997 280 L73.99999999999997 280 Z" fill="#ff5ce0" opacity="0.07"/><path d="M300 -40 L105.99999999999997 280 L157.99999999999997 280 Z" fill="#ff5ce0" opacity="0.07"/><path d="M300 -40 L190 280 L242 280 Z" fill="#ff5ce0" opacity="0.07"/><path d="M300 -40 L274 280 L326 280 Z" fill="#ff5ce0" opacity="0.07"/><path d="M300 -40 L358 280 L410 280 Z" fill="#ff5ce0" opacity="0.07"/><path d="M300 -40 L442 280 L494 280 Z" fill="#ff5ce0" opacity="0.07"/><path d="M300 -40 L526 280 L578 280 Z" fill="#ff5ce0" opacity="0.07"/><path d="M300 -40 L610 280 L662 280 Z" fill="#ff5ce0" opacity="0.07"/></g><ellipse cx="300" cy="150" rx="252" ry="132" fill="url(#cgbot58)"/><rect width="600" height="114" fill="#ffffff" opacity="0.05"/><rect width="600" height="300" fill="url(#vgbot58)"/><rect x="27" y="27" width="546" height="246" rx="9" fill="none" stroke="#ff5ce0" stroke-width="2" opacity="0.55"/><rect x="42" y="42" width="516" height="216" rx="6" fill="none" stroke="#ff5ce0" stroke-width="1" opacity="0.32"/><path d="M42 27 C 44.4 39.6, 44.4 39.6, 57 42 C 44.4 44.4, 44.4 44.4, 42 57 C 39.6 44.4, 39.6 44.4, 27 42 C 39.6 39.6, 39.6 39.6, 42 27 Z" fill="#ff5ce0" opacity="0.9"/><path d="M42 243 C 44.4 255.6, 44.4 255.6, 57 258 C 44.4 260.4, 44.4 260.4, 42 273 C 39.6 260.4, 39.6 260.4, 27 258 C 39.6 255.6, 39.6 255.6, 42 243 Z" fill="#ff5ce0" opacity="0.9"/><path d="M558 27 C 560.4 39.6, 560.4 39.6, 573 42 C 560.4 44.4, 560.4 44.4, 558 57 C 555.6 44.4, 555.6 44.4, 543 42 C 555.6 39.6, 555.6 39.6, 558 27 Z" fill="#ff5ce0" opacity="0.9"/><path d="M558 243 C 560.4 255.6, 560.4 255.6, 573 258 C 560.4 260.4, 560.4 260.4, 558 273 C 555.6 260.4, 555.6 260.4, 543 258 C 555.6 255.6, 555.6 255.6, 558 243 Z" fill="#ff5ce0" opacity="0.9"/><text x="300" y="70.5" text-anchor="middle" dominant-baseline="middle" font-family="'Malgun Gothic','Apple SD Gothic Neo','Noto Sans KR',sans-serif" font-weight="700" font-size="30" fill="#ff5ce0" letter-spacing="5.3999999999999995">✦ 명품알바 ✦</text><text x="300" y="156" text-anchor="middle" dominant-baseline="middle" font-family="'Malgun Gothic','Apple SD Gothic Neo','Noto Sans KR',sans-serif" font-weight="900" font-size="74.99999999999999" fill="#ff5ce0" filter="url(#glowbot58)" opacity="0.95" letter-spacing="-1">상단 배너 광고</text><text x="300" y="156" text-anchor="middle" dominant-baseline="middle" font-family="'Malgun Gothic','Apple SD Gothic Neo','Noto Sans KR',sans-serif" font-weight="900" font-size="74.99999999999999" fill="url(#txbot58)" stroke="rgba(0,0,0,0.5)" stroke-width="1.1999999999999997" filter="url(#dsbot58)" letter-spacing="-1">상단 배너 광고</text><text x="300" y="237" text-anchor="middle" dominant-baseline="middle" font-family="'Malgun Gothic','Apple SD Gothic Neo','Noto Sans KR',sans-serif" font-weight="600" font-size="25.200000000000003" fill="#ffd6f7" opacity="0.92" letter-spacing="0.4">상단 고정 · 프리미엄 · 상단노출</text></svg>