<svg xmlns="http://www.w3.org/2000/svg" width="600" height="300" viewBox="0 0 600 300"><defs><radialGradient id="bgbot18" cx="0.5" cy="0.42" r="0.9"><stop offset="0.00" stop-color="#2a1466"/><stop offset="0.50" stop-color="#150a3a"/><stop offset="1.00" stop-color="#0a0522"/></radialGradient><linearGradient id="txbot18" x1="0" y1="0" x2="0" y2="1"><stop offset="0.00" stop-color="#ff6ee6"/><stop offset="0.33" stop-color="#ff8fea"/><stop offset="0.67" stop-color="#7fe6ff"/><stop offset="1.00" stop-color="#c7a0ff"/></linearGradient><radialGradient id="cgbot18" cx="0.5" cy="0.5" r="0.5"><stop offset="0" stop-color="#ff5ce0" stop-opacity="0.5"/><stop offset="1" stop-color="#ff5ce0" stop-opacity="0"/></radialGradient><radialGradient id="vgbot18" cx="0.5" cy="0.5" r="0.78"><stop offset="0.5" stop-color="#000" stop-opacity="0"/><stop offset="1" stop-color="#000" stop-opacity="0.45"/></radialGradient><filter id="glowbot18" x="-40%" y="-60%" width="180%" height="220%"><feGaussianBlur stdDeviation="9"/></filter><filter id="blurbot18" x="-30%" y="-30%" width="160%" height="160%"><feGaussianBlur stdDeviation="16"/></filter><filter id="softbot18"><feGaussianBlur stdDeviation="10"/></filter><filter id="dsbot18" x="-20%" y="-20%" width="140%" height="150%"><feDropShadow dx="0" dy="3.6" stdDeviation="3.6" flood-color="#000" flood-opacity="0.6"/></filter></defs><rect width="600" height="300" fill="url(#bgbot18)"/><g filter="url(#blurbot18)"><circle cx="11.539928801357746" cy="120.81443185452372" r="28.75136151490733" fill="#ff5ce0" opacity="0.056934956237673764"/><circle cx="376.0094314813614" cy="220.28864838648587" r="32.66818700125441" fill="#ff5ce0" opacity="0.12108048386871816"/><circle cx="512.1168477460742" cy="18.817658931948245" r="31.05245544714853" fill="#ffffff" opacity="0.12176218293607236"/><circle cx="4.24666665494442" cy="112.2273025335744" r="26.780230676289648" fill="#ff5ce0" opacity="0.06150404788553715"/><circle cx="396.16982135921717" cy="256.7693673307076" r="11.759795445483178" fill="#ff5ce0" opacity="0.1577208202332258"/><circle cx="169.44945082068443" cy="94.38404173124582" r="18.37000593682751" fill="#ffffff" opacity="0.08620431669056416"/><circle cx="215.40134903043509" cy="136.06783433351666" r="50.5529431249015" fill="#ff5ce0" opacity="0.09414100728929042"/><circle cx="122.48410172760487" cy="195.53446259815246" r="33.27961101895198" fill="#ff5ce0" opacity="0.1951608435064554"/><circle cx="550.9939106181264" cy="40.35621026996523" r="22.607431780081242" fill="#ffffff" opacity="0.09891733638942242"/><circle cx="116.93910509347916" cy="202.77325354982167" r="10.048287713434547" fill="#ff5ce0" opacity="0.1676988846808672"/><circle cx="556.9693414494395" cy="67.35845601651818" r="46.46586013538763" fill="#ff5ce0" opacity="0.052571352943778044"/><circle cx="496.23448960483074" cy="27.725132298655808" r="42.22101511573419" fill="#ffffff" opacity="0.18155189968645574"/><circle cx="291.0482073202729" cy="179.46528049651533" r="37.7839860948734" fill="#ff5ce0" opacity="0.11231405548751355"/><circle cx="368.23120191693306" cy="91.5057833539322" r="48.532103375997394" fill="#ff5ce0" opacity="0.12192405112087727"/></g><g filter="url(#softbot18)"><path d="M300 -40 L-62.00000000000006 280 L-10.000000000000057 280 Z" fill="#ff5ce0" opacity="0.07"/><path d="M300 -40 L21.99999999999997 280 L73.99999999999997 280 Z" fill="#ff5ce0" opacity="0.07"/><path d="M300 -40 L105.99999999999997 280 L157.99999999999997 280 Z" fill="#ff5ce0" opacity="0.07"/><path d="M300 -40 L190 280 L242 280 Z" fill="#ff5ce0" opacity="0.07"/><path d="M300 -40 L274 280 L326 280 Z" fill="#ff5ce0" opacity="0.07"/><path d="M300 -40 L358 280 L410 280 Z" fill="#ff5ce0" opacity="0.07"/><path d="M300 -40 L442 280 L494 280 Z" fill="#ff5ce0" opacity="0.07"/><path d="M300 -40 L526 280 L578 280 Z" fill="#ff5ce0" opacity="0.07"/><path d="M300 -40 L610 280 L662 280 Z" fill="#ff5ce0" opacity="0.07"/></g><ellipse cx="300" cy="150" rx="252" ry="132" fill="url(#cgbot18)"/><rect width="600" height="114" fill="#ffffff" opacity="0.05"/><rect width="600" height="300" fill="url(#vgbot18)"/><rect x="27" y="27" width="546" height="246" rx="9" fill="none" stroke="#ff5ce0" stroke-width="2" opacity="0.55"/><rect x="42" y="42" width="516" height="216" rx="6" fill="none" stroke="#ff5ce0" stroke-width="1" opacity="0.32"/><path d="M42 27 C 44.4 39.6, 44.4 39.6, 57 42 C 44.4 44.4, 44.4 44.4, 42 57 C 39.6 44.4, 39.6 44.4, 27 42 C 39.6 39.6, 39.6 39.6, 42 27 Z" fill="#ff5ce0" opacity="0.9"/><path d="M42 243 C 44.4 255.6, 44.4 255.6, 57 258 C 44.4 260.4, 44.4 260.4, 42 273 C 39.6 260.4, 39.6 260.4, 27 258 C 39.6 255.6, 39.6 255.6, 42 243 Z" fill="#ff5ce0" opacity="0.9"/><path d="M558 27 C 560.4 39.6, 560.4 39.6, 573 42 C 560.4 44.4, 560.4 44.4, 558 57 C 555.6 44.4, 555.6 44.4, 543 42 C 555.6 39.6, 555.6 39.6, 558 27 Z" fill="#ff5ce0" opacity="0.9"/><path d="M558 243 C 560.4 255.6, 560.4 255.6, 573 258 C 560.4 260.4, 560.4 260.4, 558 273 C 555.6 260.4, 555.6 260.4, 543 258 C 555.6 255.6, 555.6 255.6, 558 243 Z" fill="#ff5ce0" opacity="0.9"/><text x="300" y="70.5" text-anchor="middle" dominant-baseline="middle" font-family="'Malgun Gothic','Apple SD Gothic Neo','Noto Sans KR',sans-serif" font-weight="700" font-size="30" fill="#ff5ce0" letter-spacing="5.3999999999999995">✦ 명품알바 ✦</text><text x="300" y="156" text-anchor="middle" dominant-baseline="middle" font-family="'Malgun Gothic','Apple SD Gothic Neo','Noto Sans KR',sans-serif" font-weight="900" font-size="74.99999999999999" fill="#ff5ce0" filter="url(#glowbot18)" opacity="0.95" letter-spacing="-1">상단 배너 광고</text><text x="300" y="156" text-anchor="middle" dominant-baseline="middle" font-family="'Malgun Gothic','Apple SD Gothic Neo','Noto Sans KR',sans-serif" font-weight="900" font-size="74.99999999999999" fill="url(#txbot18)" stroke="rgba(0,0,0,0.5)" stroke-width="1.1999999999999997" filter="url(#dsbot18)" letter-spacing="-1">상단 배너 광고</text><text x="300" y="237" text-anchor="middle" dominant-baseline="middle" font-family="'Malgun Gothic','Apple SD Gothic Neo','Noto Sans KR',sans-serif" font-weight="600" font-size="25.200000000000003" fill="#ffd6f7" opacity="0.92" letter-spacing="0.4">상단 고정 · 프리미엄 · 상단노출</text></svg>