<svg xmlns="http://www.w3.org/2000/svg" width="600" height="300" viewBox="0 0 600 300"><defs><radialGradient id="bgbot30" cx="0.5" cy="0.42" r="0.9"><stop offset="0.00" stop-color="#4a2596"/><stop offset="0.50" stop-color="#241056"/><stop offset="1.00" stop-color="#120830"/></radialGradient><linearGradient id="txbot30" x1="0" y1="0" x2="0" y2="1"><stop offset="0.00" stop-color="#ffffff"/><stop offset="0.33" stop-color="#ecdcff"/><stop offset="0.67" stop-color="#c9a4ff"/><stop offset="1.00" stop-color="#ffffff"/></linearGradient><radialGradient id="cgbot30" cx="0.5" cy="0.5" r="0.5"><stop offset="0" stop-color="#a765ff" stop-opacity="0.5"/><stop offset="1" stop-color="#a765ff" stop-opacity="0"/></radialGradient><radialGradient id="vgbot30" cx="0.5" cy="0.5" r="0.78"><stop offset="0.5" stop-color="#000" stop-opacity="0"/><stop offset="1" stop-color="#000" stop-opacity="0.45"/></radialGradient><filter id="glowbot30" x="-40%" y="-60%" width="180%" height="220%"><feGaussianBlur stdDeviation="5"/></filter><filter id="blurbot30" x="-30%" y="-30%" width="160%" height="160%"><feGaussianBlur stdDeviation="16"/></filter><filter id="softbot30"><feGaussianBlur stdDeviation="10"/></filter><filter id="dsbot30" x="-20%" y="-20%" width="140%" height="150%"><feDropShadow dx="0" dy="3.6" stdDeviation="3.6" flood-color="#000" flood-opacity="0.6"/></filter></defs><rect width="600" height="300" fill="url(#bgbot30)"/><g filter="url(#blurbot30)"><circle cx="138.4288240224123" cy="189.97334477026016" r="47.65952914720401" fill="#c08bff" opacity="0.13134619154036045"/><circle cx="171.8340815976262" cy="233.15603623632342" r="33.08282081363723" fill="#a765ff" opacity="0.061752884313464165"/><circle cx="147.99775332212448" cy="250.99464647937566" r="44.66566407075152" fill="#ffffff" opacity="0.06853411979973317"/><circle cx="402.7027962729335" cy="206.80349415633827" r="49.26502636773512" fill="#c08bff" opacity="0.08036318443715573"/><circle cx="182.30269365012646" cy="266.39438022393733" r="53.23701303219423" fill="#a765ff" opacity="0.09083340860903263"/><circle cx="414.5100289955735" cy="123.8273203605786" r="38.830299887340516" fill="#ffffff" opacity="0.17866324476897716"/><circle cx="425.86474791169167" cy="230.57924613822252" r="15.265112744178623" fill="#c08bff" opacity="0.2049325955659151"/><circle cx="577.7571072801948" cy="245.31817494425923" r="35.716503768693656" fill="#a765ff" opacity="0.15985039196908474"/><circle cx="142.88031198084354" cy="296.47034865338355" r="42.92067472403869" fill="#ffffff" opacity="0.09155342139303685"/><circle cx="293.98783911019564" cy="224.76784104947" r="15.623097087722272" fill="#c08bff" opacity="0.1894364058226347"/><circle cx="26.83044970035553" cy="147.9641339974478" r="25.587179043795913" fill="#a765ff" opacity="0.1945133299380541"/><circle cx="589.1478879377246" cy="64.90516236517578" r="10.382229350041598" fill="#ffffff" opacity="0.06931001923978329"/><circle cx="537.5902678817511" cy="191.14332769531757" r="44.66946808015928" fill="#c08bff" opacity="0.059787968173623085"/><circle cx="294.44414768368006" cy="193.2819806272164" r="18.20483424095437" fill="#a765ff" opacity="0.08179941825568676"/></g><ellipse cx="300" cy="150" rx="252" ry="132" fill="url(#cgbot30)"/><rect width="600" height="114" fill="#ffffff" opacity="0.05"/><rect width="600" height="300" fill="url(#vgbot30)"/><rect x="27" y="27" width="546" height="246" rx="9" fill="none" stroke="#c08bff" stroke-width="2" opacity="0.55"/><rect x="42" y="42" width="516" height="216" rx="6" fill="none" stroke="#c08bff" stroke-width="1" opacity="0.32"/><path d="M42 27 C 44.4 39.6, 44.4 39.6, 57 42 C 44.4 44.4, 44.4 44.4, 42 57 C 39.6 44.4, 39.6 44.4, 27 42 C 39.6 39.6, 39.6 39.6, 42 27 Z" fill="#c08bff" opacity="0.9"/><path d="M42 243 C 44.4 255.6, 44.4 255.6, 57 258 C 44.4 260.4, 44.4 260.4, 42 273 C 39.6 260.4, 39.6 260.4, 27 258 C 39.6 255.6, 39.6 255.6, 42 243 Z" fill="#c08bff" opacity="0.9"/><path d="M558 27 C 560.4 39.6, 560.4 39.6, 573 42 C 560.4 44.4, 560.4 44.4, 558 57 C 555.6 44.4, 555.6 44.4, 543 42 C 555.6 39.6, 555.6 39.6, 558 27 Z" fill="#c08bff" opacity="0.9"/><path d="M558 243 C 560.4 255.6, 560.4 255.6, 573 258 C 560.4 260.4, 560.4 260.4, 558 273 C 555.6 260.4, 555.6 260.4, 543 258 C 555.6 255.6, 555.6 255.6, 558 243 Z" fill="#c08bff" opacity="0.9"/><text x="300" y="70.5" text-anchor="middle" dominant-baseline="middle" font-family="'Malgun Gothic','Apple SD Gothic Neo','Noto Sans KR',sans-serif" font-weight="700" font-size="30" fill="#c08bff" letter-spacing="5.3999999999999995">✦ 명품알바 ✦</text><text x="300" y="156" text-anchor="middle" dominant-baseline="middle" font-family="'Malgun Gothic','Apple SD Gothic Neo','Noto Sans KR',sans-serif" font-weight="900" font-size="94.44444444444444" fill="#a765ff" filter="url(#glowbot30)" opacity="0.7" letter-spacing="-1">최상단 노출</text><text x="300" y="156" text-anchor="middle" dominant-baseline="middle" font-family="'Malgun Gothic','Apple SD Gothic Neo','Noto Sans KR',sans-serif" font-weight="900" font-size="94.44444444444444" fill="url(#txbot30)" stroke="rgba(0,0,0,0.5)" stroke-width="1.511111111111111" filter="url(#dsbot30)" letter-spacing="-1">최상단 노출</text><text x="300" y="237" text-anchor="middle" dominant-baseline="middle" font-family="'Malgun Gothic','Apple SD Gothic Neo','Noto Sans KR',sans-serif" font-weight="600" font-size="25.200000000000003" fill="#e9d6ff" opacity="0.92" letter-spacing="0.4">상단 고정 · 상단 배너 · 프리미엄 광고</text></svg>