<svg xmlns="http://www.w3.org/2000/svg" width="600" height="300" viewBox="0 0 600 300"><defs><radialGradient id="bgbot41" cx="0.5" cy="0.42" r="0.9"><stop offset="0.00" stop-color="#4a3512"/><stop offset="0.50" stop-color="#2c2008"/><stop offset="1.00" stop-color="#171003"/></radialGradient><linearGradient id="txbot41" x1="0" y1="0" x2="0" y2="1"><stop offset="0.00" stop-color="#fff8dc"/><stop offset="0.33" stop-color="#ffdf87"/><stop offset="0.67" stop-color="#c8912a"/><stop offset="1.00" stop-color="#ffeeb0"/></linearGradient><radialGradient id="cgbot41" cx="0.5" cy="0.5" r="0.5"><stop offset="0" stop-color="#ffcf5c" stop-opacity="0.5"/><stop offset="1" stop-color="#ffcf5c" stop-opacity="0"/></radialGradient><radialGradient id="vgbot41" cx="0.5" cy="0.5" r="0.78"><stop offset="0.5" stop-color="#000" stop-opacity="0"/><stop offset="1" stop-color="#000" stop-opacity="0.45"/></radialGradient><filter id="glowbot41" x="-40%" y="-60%" width="180%" height="220%"><feGaussianBlur stdDeviation="5"/></filter><filter id="blurbot41" x="-30%" y="-30%" width="160%" height="160%"><feGaussianBlur stdDeviation="16"/></filter><filter id="softbot41"><feGaussianBlur stdDeviation="10"/></filter><filter id="dsbot41" x="-20%" y="-20%" width="140%" height="150%"><feDropShadow dx="0" dy="3.6" stdDeviation="3.6" flood-color="#000" flood-opacity="0.6"/></filter></defs><rect width="600" height="300" fill="url(#bgbot41)"/><g filter="url(#blurbot41)"><circle cx="304.7436446417123" cy="178.36901494301856" r="15.158682810142636" fill="#ffce5c" opacity="0.1862231572344899"/><circle cx="84.6733442042023" cy="219.95114176534116" r="10.462901808321476" fill="#ffcf5c" opacity="0.18070258472114803"/><circle cx="214.22191676683724" cy="138.82355173118412" r="53.311105309054255" fill="#ffffff" opacity="0.07307506192475557"/><circle cx="567.9542484227568" cy="193.49833647720516" r="35.376089084893465" fill="#ffce5c" opacity="0.15098405960947275"/><circle cx="436.25782658346" cy="100.21730870939791" r="45.25779582001269" fill="#ffcf5c" opacity="0.1495199479535222"/><circle cx="39.148892322555184" cy="125.81699243746698" r="19.252236008644104" fill="#ffffff" opacity="0.10341726217418909"/><circle cx="268.7895302195102" cy="117.21470695920289" r="9.751268228515983" fill="#ffce5c" opacity="0.09315821815282108"/><circle cx="445.09069570340216" cy="165.9532445948571" r="22.61698878929019" fill="#ffcf5c" opacity="0.20748247805982828"/><circle cx="18.7761798966676" cy="81.24164217151701" r="42.374480755999684" fill="#ffffff" opacity="0.16480316597968342"/><circle cx="106.28251195885241" cy="19.92954625748098" r="47.56667234748602" fill="#ffce5c" opacity="0.15602913353592157"/><circle cx="290.86979893036187" cy="196.85267214663327" r="14.11505470983684" fill="#ffcf5c" opacity="0.19129347551614045"/><circle cx="74.31850307621062" cy="73.9868565928191" r="8.030009064823389" fill="#ffffff" opacity="0.07308829549700022"/><circle cx="113.58715672977269" cy="201.8482042942196" r="20.314493233338" fill="#ffce5c" opacity="0.0783057214692235"/><circle cx="326.8060146365315" cy="61.57682812772691" r="36.404837533831596" fill="#ffcf5c" opacity="0.07168517146259547"/></g><ellipse cx="300" cy="150" rx="252" ry="132" fill="url(#cgbot41)"/><rect width="600" height="114" fill="#ffffff" opacity="0.05"/><rect width="600" height="300" fill="url(#vgbot41)"/><rect x="27" y="27" width="546" height="246" rx="9" fill="none" stroke="#ffce5c" stroke-width="2" opacity="0.55"/><rect x="42" y="42" width="516" height="216" rx="6" fill="none" stroke="#ffce5c" stroke-width="1" opacity="0.32"/><path d="M42 27 C 44.4 39.6, 44.4 39.6, 57 42 C 44.4 44.4, 44.4 44.4, 42 57 C 39.6 44.4, 39.6 44.4, 27 42 C 39.6 39.6, 39.6 39.6, 42 27 Z" fill="#ffce5c" opacity="0.9"/><path d="M42 243 C 44.4 255.6, 44.4 255.6, 57 258 C 44.4 260.4, 44.4 260.4, 42 273 C 39.6 260.4, 39.6 260.4, 27 258 C 39.6 255.6, 39.6 255.6, 42 243 Z" fill="#ffce5c" opacity="0.9"/><path d="M558 27 C 560.4 39.6, 560.4 39.6, 573 42 C 560.4 44.4, 560.4 44.4, 558 57 C 555.6 44.4, 555.6 44.4, 543 42 C 555.6 39.6, 555.6 39.6, 558 27 Z" fill="#ffce5c" opacity="0.9"/><path d="M558 243 C 560.4 255.6, 560.4 255.6, 573 258 C 560.4 260.4, 560.4 260.4, 558 273 C 555.6 260.4, 555.6 260.4, 543 258 C 555.6 255.6, 555.6 255.6, 558 243 Z" fill="#ffce5c" opacity="0.9"/><text x="300" y="70.5" text-anchor="middle" dominant-baseline="middle" font-family="'Malgun Gothic','Apple SD Gothic Neo','Noto Sans KR',sans-serif" font-weight="700" font-size="30" fill="#ffce5c" letter-spacing="5.3999999999999995">✦ 명품알바 ✦</text><text x="300" y="156" text-anchor="middle" dominant-baseline="middle" font-family="'Malgun Gothic','Apple SD Gothic Neo','Noto Sans KR',sans-serif" font-weight="900" font-size="79.6875" fill="#ffcf5c" filter="url(#glowbot41)" opacity="0.7" letter-spacing="-1">광고 입점문의</text><text x="300" y="156" text-anchor="middle" dominant-baseline="middle" font-family="'Malgun Gothic','Apple SD Gothic Neo','Noto Sans KR',sans-serif" font-weight="900" font-size="79.6875" fill="url(#txbot41)" stroke="rgba(0,0,0,0.5)" stroke-width="1.2750000000000001" filter="url(#dsbot41)" letter-spacing="-1">광고 입점문의</text><text x="300" y="237" text-anchor="middle" dominant-baseline="middle" font-family="'Malgun Gothic','Apple SD Gothic Neo','Noto Sans KR',sans-serif" font-weight="600" font-size="25.200000000000003" fill="#ffdf87" opacity="0.92" letter-spacing="0.4">프리미엄 광고 · 상단 노출 · 입점</text></svg>