<svg xmlns="http://www.w3.org/2000/svg" width="600" height="300" viewBox="0 0 600 300"><defs><radialGradient id="bgbot49" cx="0.5" cy="0.42" r="0.9"><stop offset="0.00" stop-color="#4a3512"/><stop offset="0.50" stop-color="#2c2008"/><stop offset="1.00" stop-color="#171003"/></radialGradient><linearGradient id="txbot49" x1="0" y1="0" x2="0" y2="1"><stop offset="0.00" stop-color="#fff8dc"/><stop offset="0.33" stop-color="#ffdf87"/><stop offset="0.67" stop-color="#c8912a"/><stop offset="1.00" stop-color="#ffeeb0"/></linearGradient><radialGradient id="cgbot49" cx="0.5" cy="0.5" r="0.5"><stop offset="0" stop-color="#ffcf5c" stop-opacity="0.5"/><stop offset="1" stop-color="#ffcf5c" stop-opacity="0"/></radialGradient><radialGradient id="vgbot49" cx="0.5" cy="0.5" r="0.78"><stop offset="0.5" stop-color="#000" stop-opacity="0"/><stop offset="1" stop-color="#000" stop-opacity="0.45"/></radialGradient><filter id="glowbot49" x="-40%" y="-60%" width="180%" height="220%"><feGaussianBlur stdDeviation="5"/></filter><filter id="blurbot49" x="-30%" y="-30%" width="160%" height="160%"><feGaussianBlur stdDeviation="16"/></filter><filter id="softbot49"><feGaussianBlur stdDeviation="10"/></filter><filter id="dsbot49" x="-20%" y="-20%" width="140%" height="150%"><feDropShadow dx="0" dy="3.6" stdDeviation="3.6" flood-color="#000" flood-opacity="0.6"/></filter></defs><rect width="600" height="300" fill="url(#bgbot49)"/><g filter="url(#blurbot49)"><circle cx="589.3362414557487" cy="224.47495688684285" r="12.43079456500709" fill="#ffce5c" opacity="0.18249731410294773"/><circle cx="348.5564442817122" cy="128.52940033189952" r="10.73932434991002" fill="#ffcf5c" opacity="0.19448418501764536"/><circle cx="371.4758538175374" cy="193.60821009613574" r="47.053244391456246" fill="#ffffff" opacity="0.09092301983386278"/><circle cx="33.59166816808283" cy="156.54913089238107" r="50.365952879190445" fill="#ffce5c" opacity="0.05689015064388514"/><circle cx="293.67974144406617" cy="6.633983971551061" r="26.909274211153388" fill="#ffcf5c" opacity="0.10492834020406008"/><circle cx="202.52261110581458" cy="45.445844857022166" r="17.55909864231944" fill="#ffffff" opacity="0.16505654755979776"/><circle cx="209.09846280701458" cy="280.2223148290068" r="47.55938130803406" fill="#ffce5c" opacity="0.11368594367057086"/><circle cx="348.6060327384621" cy="299.1423861589283" r="8.908250622451305" fill="#ffcf5c" opacity="0.1839421770349145"/><circle cx="146.70044747181237" cy="251.9844010937959" r="25.249976051971316" fill="#ffffff" opacity="0.15989388931542636"/><circle cx="24.315001303330064" cy="34.59260459057987" r="20.616545263677835" fill="#ffce5c" opacity="0.11718748096376658"/><circle cx="537.4438710976392" cy="150.58979080058634" r="30.862600648775697" fill="#ffcf5c" opacity="0.07258812684565782"/><circle cx="136.26076863147318" cy="298.7735433038324" r="48.13748522102833" fill="#ffffff" opacity="0.10492704186588526"/><circle cx="77.94853043742478" cy="209.6335690934211" r="40.23814789019525" fill="#ffce5c" opacity="0.14995499659329653"/><circle cx="77.61464514769614" cy="129.42762630991638" r="16.18665811046958" fill="#ffcf5c" opacity="0.1516020828858018"/></g><ellipse cx="300" cy="150" rx="252" ry="132" fill="url(#cgbot49)"/><rect width="600" height="114" fill="#ffffff" opacity="0.05"/><rect width="600" height="300" fill="url(#vgbot49)"/><rect x="27" y="27" width="546" height="246" rx="9" fill="none" stroke="#ffce5c" stroke-width="2" opacity="0.55"/><rect x="42" y="42" width="516" height="216" rx="6" fill="none" stroke="#ffce5c" stroke-width="1" opacity="0.32"/><path d="M42 27 C 44.4 39.6, 44.4 39.6, 57 42 C 44.4 44.4, 44.4 44.4, 42 57 C 39.6 44.4, 39.6 44.4, 27 42 C 39.6 39.6, 39.6 39.6, 42 27 Z" fill="#ffce5c" opacity="0.9"/><path d="M42 243 C 44.4 255.6, 44.4 255.6, 57 258 C 44.4 260.4, 44.4 260.4, 42 273 C 39.6 260.4, 39.6 260.4, 27 258 C 39.6 255.6, 39.6 255.6, 42 243 Z" fill="#ffce5c" opacity="0.9"/><path d="M558 27 C 560.4 39.6, 560.4 39.6, 573 42 C 560.4 44.4, 560.4 44.4, 558 57 C 555.6 44.4, 555.6 44.4, 543 42 C 555.6 39.6, 555.6 39.6, 558 27 Z" fill="#ffce5c" opacity="0.9"/><path d="M558 243 C 560.4 255.6, 560.4 255.6, 573 258 C 560.4 260.4, 560.4 260.4, 558 273 C 555.6 260.4, 555.6 260.4, 543 258 C 555.6 255.6, 555.6 255.6, 558 243 Z" fill="#ffce5c" opacity="0.9"/><text x="300" y="70.5" text-anchor="middle" dominant-baseline="middle" font-family="'Malgun Gothic','Apple SD Gothic Neo','Noto Sans KR',sans-serif" font-weight="700" font-size="30" fill="#ffce5c" letter-spacing="5.3999999999999995">✦ 명품알바 ✦</text><text x="300" y="156" text-anchor="middle" dominant-baseline="middle" font-family="'Malgun Gothic','Apple SD Gothic Neo','Noto Sans KR',sans-serif" font-weight="900" font-size="79.6875" fill="#ffcf5c" filter="url(#glowbot49)" opacity="0.7" letter-spacing="-1">광고 입점문의</text><text x="300" y="156" text-anchor="middle" dominant-baseline="middle" font-family="'Malgun Gothic','Apple SD Gothic Neo','Noto Sans KR',sans-serif" font-weight="900" font-size="79.6875" fill="url(#txbot49)" stroke="rgba(0,0,0,0.5)" stroke-width="1.2750000000000001" filter="url(#dsbot49)" letter-spacing="-1">광고 입점문의</text><text x="300" y="237" text-anchor="middle" dominant-baseline="middle" font-family="'Malgun Gothic','Apple SD Gothic Neo','Noto Sans KR',sans-serif" font-weight="600" font-size="25.200000000000003" fill="#ffdf87" opacity="0.92" letter-spacing="0.4">빠른 노출 · 최고 대우 · 입점환영</text></svg>