<svg xmlns="http://www.w3.org/2000/svg" width="600" height="300" viewBox="0 0 600 300"><defs><radialGradient id="bgbot55" cx="0.5" cy="0.42" r="0.9"><stop offset="0.00" stop-color="#3a1020"/><stop offset="0.50" stop-color="#1e0812"/><stop offset="1.00" stop-color="#0d0407"/></radialGradient><linearGradient id="txbot55" x1="0" y1="0" x2="0" y2="1"><stop offset="0.00" stop-color="#ffe9f1"/><stop offset="0.33" stop-color="#ffb0d0"/><stop offset="0.67" stop-color="#c76b93"/><stop offset="1.00" stop-color="#ffd9e8"/></linearGradient><radialGradient id="cgbot55" cx="0.5" cy="0.5" r="0.5"><stop offset="0" stop-color="#ff86b6" stop-opacity="0.5"/><stop offset="1" stop-color="#ff86b6" stop-opacity="0"/></radialGradient><radialGradient id="vgbot55" cx="0.5" cy="0.5" r="0.78"><stop offset="0.5" stop-color="#000" stop-opacity="0"/><stop offset="1" stop-color="#000" stop-opacity="0.45"/></radialGradient><filter id="glowbot55" x="-40%" y="-60%" width="180%" height="220%"><feGaussianBlur stdDeviation="5"/></filter><filter id="blurbot55" x="-30%" y="-30%" width="160%" height="160%"><feGaussianBlur stdDeviation="16"/></filter><filter id="softbot55"><feGaussianBlur stdDeviation="10"/></filter><filter id="dsbot55" x="-20%" y="-20%" width="140%" height="150%"><feDropShadow dx="0" dy="3.6" stdDeviation="3.6" flood-color="#000" flood-opacity="0.6"/></filter></defs><rect width="600" height="300" fill="url(#bgbot55)"/><g filter="url(#blurbot55)"><circle cx="352.78068906627595" cy="109.05441334471107" r="44.88487838115543" fill="#ff6fa3" opacity="0.13970293175429105"/><circle cx="246.46876933984458" cy="284.9630942568183" r="10.94664125610143" fill="#ff86b6" opacity="0.08482038524001836"/><circle cx="189.41630660556257" cy="159.69670386984944" r="30.85984870325774" fill="#ffffff" opacity="0.06430898826569319"/><circle cx="232.81973297707736" cy="203.837226703763" r="38.60835072491318" fill="#ff6fa3" opacity="0.06631971891969443"/><circle cx="486.7461775895208" cy="161.44649041816592" r="47.64788300450891" fill="#ff86b6" opacity="0.15148463439196347"/><circle cx="325.0529001932591" cy="210.16748417168856" r="27.789245617575943" fill="#ffffff" opacity="0.05128601159900427"/><circle cx="14.330162247642875" cy="27.47802073135972" r="52.91546611767262" fill="#ff6fa3" opacity="0.1690817378088832"/><circle cx="276.24253551475704" cy="174.03424233198166" r="10.126696997322142" fill="#ff86b6" opacity="0.16628695126622917"/><circle cx="242.64364815317094" cy="80.04147028550506" r="12.40659752395004" fill="#ffffff" opacity="0.15621193181723358"/><circle cx="412.8393683116883" cy="195.58989834040403" r="46.4039499508217" fill="#ff6fa3" opacity="0.12805624153465034"/><circle cx="572.3744252230972" cy="40.89262979105115" r="20.42326010297984" fill="#ff86b6" opacity="0.14355911534279586"/><circle cx="182.7174677979201" cy="167.3635583370924" r="9.218092338182032" fill="#ffffff" opacity="0.20880610164254904"/><circle cx="501.21956071816385" cy="215.47259269282222" r="43.68088888283819" fill="#ff6fa3" opacity="0.20369195293635128"/><circle cx="40.721118031069636" cy="30.315724946558475" r="47.02302354294807" fill="#ff86b6" opacity="0.13153976645320653"/></g><ellipse cx="300" cy="150" rx="252" ry="132" fill="url(#cgbot55)"/><rect width="600" height="114" fill="#ffffff" opacity="0.05"/><rect width="600" height="300" fill="url(#vgbot55)"/><rect x="27" y="27" width="546" height="246" rx="9" fill="none" stroke="#ff6fa3" stroke-width="2" opacity="0.55"/><rect x="42" y="42" width="516" height="216" rx="6" fill="none" stroke="#ff6fa3" stroke-width="1" opacity="0.32"/><path d="M42 27 C 44.4 39.6, 44.4 39.6, 57 42 C 44.4 44.4, 44.4 44.4, 42 57 C 39.6 44.4, 39.6 44.4, 27 42 C 39.6 39.6, 39.6 39.6, 42 27 Z" fill="#ff6fa3" opacity="0.9"/><path d="M42 243 C 44.4 255.6, 44.4 255.6, 57 258 C 44.4 260.4, 44.4 260.4, 42 273 C 39.6 260.4, 39.6 260.4, 27 258 C 39.6 255.6, 39.6 255.6, 42 243 Z" fill="#ff6fa3" opacity="0.9"/><path d="M558 27 C 560.4 39.6, 560.4 39.6, 573 42 C 560.4 44.4, 560.4 44.4, 558 57 C 555.6 44.4, 555.6 44.4, 543 42 C 555.6 39.6, 555.6 39.6, 558 27 Z" fill="#ff6fa3" opacity="0.9"/><path d="M558 243 C 560.4 255.6, 560.4 255.6, 573 258 C 560.4 260.4, 560.4 260.4, 558 273 C 555.6 260.4, 555.6 260.4, 543 258 C 555.6 255.6, 555.6 255.6, 558 243 Z" fill="#ff6fa3" opacity="0.9"/><text x="300" y="70.5" text-anchor="middle" dominant-baseline="middle" font-family="'Malgun Gothic','Apple SD Gothic Neo','Noto Sans KR',sans-serif" font-weight="700" font-size="30" fill="#ff6fa3" letter-spacing="5.3999999999999995">✦ 명품알바 ✦</text><text x="300" y="156" text-anchor="middle" dominant-baseline="middle" font-family="'Malgun Gothic','Apple SD Gothic Neo','Noto Sans KR',sans-serif" font-weight="900" font-size="79.6875" fill="#ff86b6" filter="url(#glowbot55)" opacity="0.7" letter-spacing="-1">프리미엄 광고</text><text x="300" y="156" text-anchor="middle" dominant-baseline="middle" font-family="'Malgun Gothic','Apple SD Gothic Neo','Noto Sans KR',sans-serif" font-weight="900" font-size="79.6875" fill="url(#txbot55)" stroke="rgba(0,0,0,0.5)" stroke-width="1.2750000000000001" filter="url(#dsbot55)" letter-spacing="-1">프리미엄 광고</text><text x="300" y="237" text-anchor="middle" dominant-baseline="middle" font-family="'Malgun Gothic','Apple SD Gothic Neo','Noto Sans KR',sans-serif" font-weight="600" font-size="25.200000000000003" fill="#ffb0d0" opacity="0.92" letter-spacing="0.4">상단 고정 · 상단 배너 · 프리미엄 광고</text></svg>