<svg xmlns="http://www.w3.org/2000/svg" width="600" height="300" viewBox="0 0 600 300"><defs><radialGradient id="bgbot7" cx="0.5" cy="0.42" r="0.9"><stop offset="0.00" stop-color="#3a1020"/><stop offset="0.50" stop-color="#1e0812"/><stop offset="1.00" stop-color="#0d0407"/></radialGradient><linearGradient id="txbot7" x1="0" y1="0" x2="0" y2="1"><stop offset="0.00" stop-color="#ffe9f1"/><stop offset="0.33" stop-color="#ffb0d0"/><stop offset="0.67" stop-color="#c76b93"/><stop offset="1.00" stop-color="#ffd9e8"/></linearGradient><radialGradient id="cgbot7" cx="0.5" cy="0.5" r="0.5"><stop offset="0" stop-color="#ff86b6" stop-opacity="0.5"/><stop offset="1" stop-color="#ff86b6" stop-opacity="0"/></radialGradient><radialGradient id="vgbot7" cx="0.5" cy="0.5" r="0.78"><stop offset="0.5" stop-color="#000" stop-opacity="0"/><stop offset="1" stop-color="#000" stop-opacity="0.45"/></radialGradient><filter id="glowbot7" x="-40%" y="-60%" width="180%" height="220%"><feGaussianBlur stdDeviation="5"/></filter><filter id="blurbot7" x="-30%" y="-30%" width="160%" height="160%"><feGaussianBlur stdDeviation="16"/></filter><filter id="softbot7"><feGaussianBlur stdDeviation="10"/></filter><filter id="dsbot7" x="-20%" y="-20%" width="140%" height="150%"><feDropShadow dx="0" dy="3.6" stdDeviation="3.6" flood-color="#000" flood-opacity="0.6"/></filter></defs><rect width="600" height="300" fill="url(#bgbot7)"/><g filter="url(#blurbot7)"><circle cx="445.22510818205774" cy="132.41876168176532" r="15.252207851968706" fill="#ff6fa3" opacity="0.1620579905435443"/><circle cx="463.1701688747853" cy="233.49354285746813" r="9.28810600657016" fill="#ff86b6" opacity="0.16213078346103432"/><circle cx="445.89268430136144" cy="130.98875368013978" r="22.407014208845794" fill="#ffffff" opacity="0.11722124081104994"/><circle cx="438.9952145051211" cy="125.53246021270752" r="40.6691679591313" fill="#ff6fa3" opacity="0.1508831727132201"/><circle cx="142.21468842588365" cy="122.94643884524703" r="19.739012657664716" fill="#ff86b6" opacity="0.09903428088873625"/><circle cx="544.8105874937028" cy="92.39436965435743" r="37.94806981552392" fill="#ffffff" opacity="0.16145029928535223"/><circle cx="372.47656672261655" cy="249.4323735125363" r="10.066787640564144" fill="#ff6fa3" opacity="0.20591538470238446"/><circle cx="255.15051330439746" cy="274.8993929475546" r="46.37912599835545" fill="#ff86b6" opacity="0.14752875741571186"/><circle cx="75.09804270230234" cy="255.58491675183177" r="23.15362574812025" fill="#ffffff" opacity="0.18566759180277587"/><circle cx="304.6444322448224" cy="107.6115483418107" r="24.1047124536708" fill="#ff6fa3" opacity="0.20110615696758033"/><circle cx="292.9299922194332" cy="18.469917867332697" r="11.937984469346702" fill="#ff86b6" opacity="0.05579120736569167"/><circle cx="411.0638744663447" cy="18.643438071012497" r="44.5732354009524" fill="#ffffff" opacity="0.1777736234292388"/><circle cx="115.0513184722513" cy="168.7604038976133" r="16.138960941694677" fill="#ff6fa3" opacity="0.09379630219191312"/><circle cx="335.86933496408165" cy="223.2109358534217" r="30.332100083120167" fill="#ff86b6" opacity="0.13203829791396857"/></g><ellipse cx="300" cy="150" rx="252" ry="132" fill="url(#cgbot7)"/><rect width="600" height="114" fill="#ffffff" opacity="0.05"/><rect width="600" height="300" fill="url(#vgbot7)"/><rect x="27" y="27" width="546" height="246" rx="9" fill="none" stroke="#ff6fa3" stroke-width="2" opacity="0.55"/><rect x="42" y="42" width="516" height="216" rx="6" fill="none" stroke="#ff6fa3" stroke-width="1" opacity="0.32"/><path d="M42 27 C 44.4 39.6, 44.4 39.6, 57 42 C 44.4 44.4, 44.4 44.4, 42 57 C 39.6 44.4, 39.6 44.4, 27 42 C 39.6 39.6, 39.6 39.6, 42 27 Z" fill="#ff6fa3" opacity="0.9"/><path d="M42 243 C 44.4 255.6, 44.4 255.6, 57 258 C 44.4 260.4, 44.4 260.4, 42 273 C 39.6 260.4, 39.6 260.4, 27 258 C 39.6 255.6, 39.6 255.6, 42 243 Z" fill="#ff6fa3" opacity="0.9"/><path d="M558 27 C 560.4 39.6, 560.4 39.6, 573 42 C 560.4 44.4, 560.4 44.4, 558 57 C 555.6 44.4, 555.6 44.4, 543 42 C 555.6 39.6, 555.6 39.6, 558 27 Z" fill="#ff6fa3" opacity="0.9"/><path d="M558 243 C 560.4 255.6, 560.4 255.6, 573 258 C 560.4 260.4, 560.4 260.4, 558 273 C 555.6 260.4, 555.6 260.4, 543 258 C 555.6 255.6, 555.6 255.6, 558 243 Z" fill="#ff6fa3" opacity="0.9"/><text x="300" y="70.5" text-anchor="middle" dominant-baseline="middle" font-family="'Malgun Gothic','Apple SD Gothic Neo','Noto Sans KR',sans-serif" font-weight="700" font-size="30" fill="#ff6fa3" letter-spacing="5.3999999999999995">✦ 명품알바 ✦</text><text x="300" y="156" text-anchor="middle" dominant-baseline="middle" font-family="'Malgun Gothic','Apple SD Gothic Neo','Noto Sans KR',sans-serif" font-weight="900" font-size="79.6875" fill="#ff86b6" filter="url(#glowbot7)" opacity="0.7" letter-spacing="-1">프리미엄 광고</text><text x="300" y="156" text-anchor="middle" dominant-baseline="middle" font-family="'Malgun Gothic','Apple SD Gothic Neo','Noto Sans KR',sans-serif" font-weight="900" font-size="79.6875" fill="url(#txbot7)" stroke="rgba(0,0,0,0.5)" stroke-width="1.2750000000000001" filter="url(#dsbot7)" letter-spacing="-1">프리미엄 광고</text><text x="300" y="237" text-anchor="middle" dominant-baseline="middle" font-family="'Malgun Gothic','Apple SD Gothic Neo','Noto Sans KR',sans-serif" font-weight="600" font-size="25.200000000000003" fill="#ffb0d0" opacity="0.92" letter-spacing="0.4">지금 광고 입점 문의</text></svg>