<svg xmlns="http://www.w3.org/2000/svg" width="600" height="300" viewBox="0 0 600 300"><defs><radialGradient id="bgbot26" cx="0.5" cy="0.42" r="0.9"><stop offset="0.00" stop-color="#2a1466"/><stop offset="0.50" stop-color="#150a3a"/><stop offset="1.00" stop-color="#0a0522"/></radialGradient><linearGradient id="txbot26" x1="0" y1="0" x2="0" y2="1"><stop offset="0.00" stop-color="#ff6ee6"/><stop offset="0.33" stop-color="#ff8fea"/><stop offset="0.67" stop-color="#7fe6ff"/><stop offset="1.00" stop-color="#c7a0ff"/></linearGradient><radialGradient id="cgbot26" cx="0.5" cy="0.5" r="0.5"><stop offset="0" stop-color="#ff5ce0" stop-opacity="0.5"/><stop offset="1" stop-color="#ff5ce0" stop-opacity="0"/></radialGradient><radialGradient id="vgbot26" cx="0.5" cy="0.5" r="0.78"><stop offset="0.5" stop-color="#000" stop-opacity="0"/><stop offset="1" stop-color="#000" stop-opacity="0.45"/></radialGradient><filter id="glowbot26" x="-40%" y="-60%" width="180%" height="220%"><feGaussianBlur stdDeviation="9"/></filter><filter id="blurbot26" x="-30%" y="-30%" width="160%" height="160%"><feGaussianBlur stdDeviation="16"/></filter><filter id="softbot26"><feGaussianBlur stdDeviation="10"/></filter><filter id="dsbot26" x="-20%" y="-20%" width="140%" height="150%"><feDropShadow dx="0" dy="3.6" stdDeviation="3.6" flood-color="#000" flood-opacity="0.6"/></filter></defs><rect width="600" height="300" fill="url(#bgbot26)"/><g filter="url(#blurbot26)"><circle cx="296.1325256153941" cy="166.920373798348" r="26.023473269771785" fill="#ff5ce0" opacity="0.05320911310613156"/><circle cx="39.89253155887127" cy="128.86690695304424" r="32.944609542842954" fill="#ff5ce0" opacity="0.1348620841652155"/><circle cx="69.37078479677439" cy="73.60231729689986" r="24.794594529550523" fill="#ffffff" opacity="0.13961014084517956"/><circle cx="69.88408640027046" cy="75.27809694875032" r="41.77009447058663" fill="#ff5ce0" opacity="0.12741013891994954"/><circle cx="253.59173621982336" cy="163.18604259286076" r="39.41127383662388" fill="#ff5ce0" opacity="0.1131292124837637"/><circle cx="332.8231696039438" cy="14.012894150801003" r="16.676868570502847" fill="#ffffff" opacity="0.14784360207617284"/><circle cx="155.71028161793947" cy="299.07544220332056" r="42.36105620441958" fill="#ff5ce0" opacity="0.11466873280704022"/><circle cx="25.999438762664795" cy="28.723604162223637" r="19.570872852113098" fill="#ff5ce0" opacity="0.17162054248154163"/><circle cx="78.91817819327116" cy="211.0989691922441" r="51.482927076052874" fill="#ffffff" opacity="0.09400805972516538"/><circle cx="34.97159443795681" cy="217.43631188292056" r="29.098160629626364" fill="#ff5ce0" opacity="0.1288572321087122"/><circle cx="203.54341361671686" cy="21.09557467047125" r="17.213406074326485" fill="#ff5ce0" opacity="0.0938660042732954"/><circle cx="558.1767551600933" cy="252.51181900966913" r="36.32849127193913" fill="#ffffff" opacity="0.05339064605534077"/><circle cx="255.40958102792501" cy="187.25064529571682" r="11.70764075173065" fill="#ff5ce0" opacity="0.1839633306115866"/><circle cx="119.03983242809772" cy="159.35658153612167" r="28.313923952635378" fill="#ff5ce0" opacity="0.20184096254408362"/></g><g filter="url(#softbot26)"><path d="M300 -40 L-62.00000000000006 280 L-10.000000000000057 280 Z" fill="#ff5ce0" opacity="0.07"/><path d="M300 -40 L21.99999999999997 280 L73.99999999999997 280 Z" fill="#ff5ce0" opacity="0.07"/><path d="M300 -40 L105.99999999999997 280 L157.99999999999997 280 Z" fill="#ff5ce0" opacity="0.07"/><path d="M300 -40 L190 280 L242 280 Z" fill="#ff5ce0" opacity="0.07"/><path d="M300 -40 L274 280 L326 280 Z" fill="#ff5ce0" opacity="0.07"/><path d="M300 -40 L358 280 L410 280 Z" fill="#ff5ce0" opacity="0.07"/><path d="M300 -40 L442 280 L494 280 Z" fill="#ff5ce0" opacity="0.07"/><path d="M300 -40 L526 280 L578 280 Z" fill="#ff5ce0" opacity="0.07"/><path d="M300 -40 L610 280 L662 280 Z" fill="#ff5ce0" opacity="0.07"/></g><ellipse cx="300" cy="150" rx="252" ry="132" fill="url(#cgbot26)"/><rect width="600" height="114" fill="#ffffff" opacity="0.05"/><rect width="600" height="300" fill="url(#vgbot26)"/><rect x="27" y="27" width="546" height="246" rx="9" fill="none" stroke="#ff5ce0" stroke-width="2" opacity="0.55"/><rect x="42" y="42" width="516" height="216" rx="6" fill="none" stroke="#ff5ce0" stroke-width="1" opacity="0.32"/><path d="M42 27 C 44.4 39.6, 44.4 39.6, 57 42 C 44.4 44.4, 44.4 44.4, 42 57 C 39.6 44.4, 39.6 44.4, 27 42 C 39.6 39.6, 39.6 39.6, 42 27 Z" fill="#ff5ce0" opacity="0.9"/><path d="M42 243 C 44.4 255.6, 44.4 255.6, 57 258 C 44.4 260.4, 44.4 260.4, 42 273 C 39.6 260.4, 39.6 260.4, 27 258 C 39.6 255.6, 39.6 255.6, 42 243 Z" fill="#ff5ce0" opacity="0.9"/><path d="M558 27 C 560.4 39.6, 560.4 39.6, 573 42 C 560.4 44.4, 560.4 44.4, 558 57 C 555.6 44.4, 555.6 44.4, 543 42 C 555.6 39.6, 555.6 39.6, 558 27 Z" fill="#ff5ce0" opacity="0.9"/><path d="M558 243 C 560.4 255.6, 560.4 255.6, 573 258 C 560.4 260.4, 560.4 260.4, 558 273 C 555.6 260.4, 555.6 260.4, 543 258 C 555.6 255.6, 555.6 255.6, 558 243 Z" fill="#ff5ce0" opacity="0.9"/><text x="300" y="70.5" text-anchor="middle" dominant-baseline="middle" font-family="'Malgun Gothic','Apple SD Gothic Neo','Noto Sans KR',sans-serif" font-weight="700" font-size="30" fill="#ff5ce0" letter-spacing="5.3999999999999995">✦ 명품알바 ✦</text><text x="300" y="156" text-anchor="middle" dominant-baseline="middle" font-family="'Malgun Gothic','Apple SD Gothic Neo','Noto Sans KR',sans-serif" font-weight="900" font-size="74.99999999999999" fill="#ff5ce0" filter="url(#glowbot26)" opacity="0.95" letter-spacing="-1">상단 배너 광고</text><text x="300" y="156" text-anchor="middle" dominant-baseline="middle" font-family="'Malgun Gothic','Apple SD Gothic Neo','Noto Sans KR',sans-serif" font-weight="900" font-size="74.99999999999999" fill="url(#txbot26)" stroke="rgba(0,0,0,0.5)" stroke-width="1.1999999999999997" filter="url(#dsbot26)" letter-spacing="-1">상단 배너 광고</text><text x="300" y="237" text-anchor="middle" dominant-baseline="middle" font-family="'Malgun Gothic','Apple SD Gothic Neo','Noto Sans KR',sans-serif" font-weight="600" font-size="25.200000000000003" fill="#ffd6f7" opacity="0.92" letter-spacing="0.4">프리미엄 광고 · 상단 노출 · 입점</text></svg>