<svg xmlns="http://www.w3.org/2000/svg" width="800" height="300" viewBox="0 0 800 300"><defs><linearGradient id="bgmid4" x1="0" y1="0" x2="1" y2="1"><stop offset="0.00" stop-color="#f7f0e4"/><stop offset="0.50" stop-color="#eaddc7"/><stop offset="1.00" stop-color="#dcc9a8"/></linearGradient><linearGradient id="txmid4" x1="0" y1="0" x2="0" y2="1"><stop offset="0.00" stop-color="#8a6a2f"/><stop offset="0.33" stop-color="#b8933f"/><stop offset="0.67" stop-color="#6f5222"/><stop offset="1.00" stop-color="#d8b25a"/></linearGradient><radialGradient id="cgmid4" cx="0.5" cy="0.5" r="0.5"><stop offset="0" stop-color="#e3c98f" stop-opacity="0.3"/><stop offset="1" stop-color="#e3c98f" stop-opacity="0"/></radialGradient><radialGradient id="vgmid4" cx="0.5" cy="0.5" r="0.78"><stop offset="0.5" stop-color="#000" stop-opacity="0"/><stop offset="1" stop-color="#000" stop-opacity="0.12"/></radialGradient><filter id="glowmid4" x="-40%" y="-60%" width="180%" height="220%"><feGaussianBlur stdDeviation="5"/></filter><filter id="blurmid4" x="-30%" y="-30%" width="160%" height="160%"><feGaussianBlur stdDeviation="16"/></filter><filter id="softmid4"><feGaussianBlur stdDeviation="10"/></filter><filter id="dsmid4" x="-20%" y="-20%" width="140%" height="150%"><feDropShadow dx="0" dy="3.6" stdDeviation="3.6" flood-color="#000" flood-opacity="0.32"/></filter></defs><rect width="800" height="300" fill="url(#bgmid4)"/><g filter="url(#blurmid4)"><circle cx="197.58893065154552" cy="263.86767828371376" r="15.868493715766817" fill="#ffffff" opacity="0.059608314931392674"/><circle cx="689.7022146731615" cy="137.89995841216296" r="18.97733996110037" fill="#b8933f" opacity="0.15618474528193474"/><circle cx="497.77081571519375" cy="58.45601668115705" r="8.261995321605355" fill="#e3c98f" opacity="0.14172618389129638"/><circle cx="219.39395405352116" cy="191.3344933418557" r="32.15360403480008" fill="#ffffff" opacity="0.16645346358418467"/><circle cx="296.44880406558514" cy="87.91561739053577" r="25.032460423652083" fill="#b8933f" opacity="0.16405726581811905"/><circle cx="412.2096348553896" cy="236.7420171154663" r="10.345074326265603" fill="#e3c98f" opacity="0.14432507380843163"/><circle cx="111.12320087850094" cy="125.54874939378351" r="31.35990840056911" fill="#ffffff" opacity="0.05154937565326691"/><circle cx="503.7403825670481" cy="243.43004773836583" r="46.03053730400279" fill="#b8933f" opacity="0.14121711745858193"/><circle cx="719.3040769547224" cy="227.83028909470886" r="33.93497874820605" fill="#e3c98f" opacity="0.1474804064631462"/><circle cx="568.4933383017778" cy="136.0466793878004" r="22.759946428705007" fill="#ffffff" opacity="0.1939084641635418"/><circle cx="278.8237687200308" cy="195.93115781899542" r="29.298774829600006" fill="#b8933f" opacity="0.20002082943916322"/><circle cx="365.20415879786015" cy="165.4790199128911" r="13.431765903253108" fill="#e3c98f" opacity="0.1761018116772175"/><circle cx="98.14937822520733" cy="105.99175931420177" r="47.05770762497559" fill="#ffffff" opacity="0.15879619389772415"/><circle cx="432.14951641857624" cy="248.501628334634" r="37.445314422715455" fill="#b8933f" opacity="0.17998618587851523"/></g><ellipse cx="400" cy="150" rx="336" ry="132" fill="url(#cgmid4)"/><rect width="800" height="114" fill="#ffffff" opacity="0.14"/><rect width="800" height="300" fill="url(#vgmid4)"/><rect x="27" y="27" width="746" height="246" rx="9" fill="none" stroke="#b8933f" stroke-width="2.4" opacity="0.8"/><rect x="42" y="42" width="716" height="216" rx="6" fill="none" stroke="#b8933f" stroke-width="1" opacity="0.32"/><path d="M42 27 C 44.4 39.6, 44.4 39.6, 57 42 C 44.4 44.4, 44.4 44.4, 42 57 C 39.6 44.4, 39.6 44.4, 27 42 C 39.6 39.6, 39.6 39.6, 42 27 Z" fill="#b8933f" opacity="0.9"/><path d="M42 243 C 44.4 255.6, 44.4 255.6, 57 258 C 44.4 260.4, 44.4 260.4, 42 273 C 39.6 260.4, 39.6 260.4, 27 258 C 39.6 255.6, 39.6 255.6, 42 243 Z" fill="#b8933f" opacity="0.9"/><path d="M758 27 C 760.4 39.6, 760.4 39.6, 773 42 C 760.4 44.4, 760.4 44.4, 758 57 C 755.6 44.4, 755.6 44.4, 743 42 C 755.6 39.6, 755.6 39.6, 758 27 Z" fill="#b8933f" opacity="0.9"/><path d="M758 243 C 760.4 255.6, 760.4 255.6, 773 258 C 760.4 260.4, 760.4 260.4, 758 273 C 755.6 260.4, 755.6 260.4, 743 258 C 755.6 255.6, 755.6 255.6, 758 243 Z" fill="#b8933f" opacity="0.9"/><text x="400" y="70.5" text-anchor="middle" dominant-baseline="middle" font-family="'Malgun Gothic','Apple SD Gothic Neo','Noto Sans KR',sans-serif" font-weight="700" font-size="30" fill="#b8933f" letter-spacing="5.3999999999999995">✦ 명품알바 ✦</text><text x="400" y="156" text-anchor="middle" dominant-baseline="middle" font-family="'Malgun Gothic','Apple SD Gothic Neo','Noto Sans KR',sans-serif" font-weight="900" font-size="114.80263157894737" fill="#e3c98f" filter="url(#glowmid4)" opacity="0.7" letter-spacing="-1">VIP 상단광고</text><text x="400" y="156" text-anchor="middle" dominant-baseline="middle" font-family="'Malgun Gothic','Apple SD Gothic Neo','Noto Sans KR',sans-serif" font-weight="900" font-size="114.80263157894737" fill="url(#txmid4)" stroke="#ffffff" stroke-width="1.836842105263158" filter="url(#dsmid4)" letter-spacing="-1">VIP 상단광고</text><text x="400" y="237" text-anchor="middle" dominant-baseline="middle" font-family="'Malgun Gothic','Apple SD Gothic Neo','Noto Sans KR',sans-serif" font-weight="600" font-size="25.200000000000003" fill="#6f5426" opacity="0.92" letter-spacing="0.4">빠른 노출 · 최고 대우 · 입점환영</text></svg>